<?xml version="1.0" encoding="utf-8"?>
<!-- Generator: Adobe Illustrator 15.0.2, SVG Export Plug-In . SVG Version: 6.00 Build 0)  -->
<!DOCTYPE svg PUBLIC "-//W3C//DTD SVG 1.1//EN" "http://www.w3.org/Graphics/SVG/1.1/DTD/svg11.dtd">
<svg version="1.1" id="time2" xmlns="http://www.w3.org/2000/svg" xmlns:xlink="http://www.w3.org/1999/xlink" x="0px" y="0px"
	 width="1082.207px" height="480px" viewBox="0 0 1082.207 480" enable-background="new 0 0 1082.207 480" xml:space="preserve">
<g>
	<circle fill="#EA6489" cx="313.167" cy="108.144" r="28.208"/>
	<circle fill="#EA6489" cx="254.499" cy="126.144" r="14.105"/>
	<circle fill="#EA6489" cx="430.5" cy="156.144" r="19.947"/>
	<circle fill="#EA6489" cx="489.167" cy="128.543" r="19.946"/>
	<path fill="#EA6489" d="M622.352,175.344c0-8.754-7.096-15.853-15.852-15.853c-8.759,0-15.854,7.099-15.854,15.853
		s7.095,15.853,15.854,15.853C615.256,191.197,622.352,184.098,622.352,175.344z"/>
	<path fill="#EA6489" d="M682.849,180.688c0-9.763-7.911-17.682-17.682-17.682c-9.762,0-17.682,7.919-17.682,17.682
		c0,9.767,7.92,17.686,17.682,17.686C674.938,198.374,682.849,190.455,682.849,180.688z"/>
	<circle fill="#EA6489" cx="547.833" cy="172.429" r="18.102"/>
	<path fill="#EA6489" d="M797.209,208.597c0-8.124-6.581-14.712-14.708-14.712c-8.121,0-14.709,6.588-14.709,14.712
		c0,8.123,6.588,14.709,14.709,14.709C790.628,223.306,797.209,216.72,797.209,208.597z"/>
	<path fill="#EA6489" d="M215.78,105.644c0-11.017-8.93-19.945-19.945-19.945c-11.02,0-19.949,8.929-19.949,19.945
		s8.93,19.945,19.949,19.945C206.851,125.589,215.78,116.661,215.78,105.644z"/>
	<circle fill="#EA6489" cx="371.833" cy="182.144" r="23.841"/>
	<path fill="#EA6489" d="M740.45,200.326c0-9.178-7.442-16.615-16.619-16.615c-9.173,0-16.615,7.438-16.615,16.615
		c0,9.175,7.442,16.615,16.615,16.615C733.008,216.941,740.45,209.5,740.45,200.326z"/>
	<path fill="#EA6489" d="M855.14,195.224c0-7.722-6.26-13.978-13.977-13.978s-13.967,6.256-13.967,13.978
		c0,7.717,6.25,13.972,13.967,13.972S855.14,202.941,855.14,195.224z"/>
	<circle fill="#EA6489" cx="899.834" cy="215.32" r="13.832"/>
	<circle fill="#EA6489" cx="958.501" cy="209.113" r="12.299"/>
	<circle fill="#EA6489" cx="1017.167" cy="198.037" r="13.184"/>
</g>
</svg>
